<?xml version="1.0" encoding="UTF-8"?>
<svg version="1.1" xmlns="http://www.w3.org/2000/svg" width="1254" height="1254">
<path d="M0 0 C413.82 0 827.64 0 1254 0 C1254 413.82 1254 827.64 1254 1254 C840.18 1254 426.36 1254 0 1254 C0 840.18 0 426.36 0 0 Z " fill="#FDFDFD" transform="translate(0,0)"/>
<path d="M0 0 C1.78646179 -0.00462096 3.57291976 -0.01098182 5.35936993 -0.01890898 C10.21933593 -0.03546191 15.07898394 -0.02742046 19.93895042 -0.0149641 C25.19949958 -0.00585768 30.4599967 -0.01991103 35.72053528 -0.03088379 C46.0074076 -0.04861536 56.29416279 -0.04485266 66.58103959 -0.03323323 C74.94765375 -0.02417653 83.31423523 -0.02298456 91.68085289 -0.02732849 C93.47133334 -0.02824789 93.47133334 -0.02824789 95.2979851 -0.02918586 C97.72338541 -0.03046485 100.1487857 -0.03176171 102.57418599 -0.03307623 C125.28692154 -0.04446671 147.99959238 -0.03139315 170.71231731 -0.00987476 C190.16804111 0.0079879 209.62366941 0.00489596 229.07939148 -0.0135498 C251.70969611 -0.03499552 274.33994408 -0.04336097 296.97025746 -0.03110075 C299.38733907 -0.02982665 301.80442068 -0.02856917 304.2215023 -0.02732849 C305.41053302 -0.02671139 306.59956373 -0.02609429 307.82462567 -0.02545848 C316.1721227 -0.02201616 324.51958355 -0.02780989 332.86707497 -0.0372467 C343.0531349 -0.04850957 353.23907167 -0.04533724 363.42511765 -0.02412373 C368.61449019 -0.01366972 373.80365799 -0.00939408 378.99302864 -0.02272034 C383.75714447 -0.0347687 388.52086865 -0.02788004 393.28494968 -0.00681013 C394.99474181 -0.00239605 396.70456806 -0.00449086 398.41433767 -0.01431328 C414.58158436 -0.09995883 430.69336767 2.0752546 445.65190125 8.50793457 C446.36604187 8.79152832 447.0801825 9.07512207 447.81596375 9.36730957 C473.12875668 19.86061282 494.55096985 39.18375244 508.65190125 62.50793457 C509.06697937 63.1911377 509.4820575 63.87434082 509.90971375 64.57824707 C515.70791782 74.31485391 519.53297854 84.01517738 522.0523414 95.05997968 C522.45362461 96.69838693 522.9033151 98.32565087 523.39904457 99.93799663 C526.08919423 109.14303262 526.07522596 118.09827536 526.0395813 127.58538818 C526.04375976 129.40338206 526.04924008 131.22137333 526.05590111 133.03935981 C526.0703074 138.00950431 526.06612606 142.97948231 526.0587343 147.94963574 C526.05399292 153.31993986 526.06652112 158.69020846 526.07675171 164.0605011 C526.09392667 174.57195621 526.09478232 185.08335151 526.08953881 195.59481701 C526.08549306 204.14178755 526.08694548 212.68874045 526.09228706 221.23571014 C526.09303549 222.45339901 526.09378391 223.67108787 526.09455501 224.92567639 C526.09608653 227.39964329 526.09762488 229.87361018 526.09916998 232.34757707 C526.11289058 255.53609494 526.10746065 278.72457906 526.09598476 301.91309616 C526.08605528 323.10853133 526.09898895 344.30387917 526.12291896 365.49930087 C526.14732586 387.28188614 526.15691376 409.06443077 526.15026623 430.84702945 C526.14677724 443.06859041 526.14898482 455.29008423 526.16651726 467.51163483 C526.18125921 477.91677836 526.1818487 488.32180749 526.16444635 498.72694883 C526.15595001 504.03123398 526.15375338 509.33531495 526.1690979 514.63958931 C526.18299584 519.50422604 526.17811647 524.36848464 526.15885866 529.23309979 C526.15511393 530.98402253 526.15797609 532.73497593 526.16847032 534.48587123 C526.23158421 545.83131822 524.83930458 555.59795586 521.65190125 566.50793457 C521.12921753 568.59080444 520.60805272 570.67405699 520.08940125 572.75793457 C515.64286962 586.81527666 507.06712875 600.26055469 497.65190125 611.50793457 C496.94678406 612.35227051 496.24166687 613.19660645 495.5151825 614.06652832 C485.76755576 625.28417417 475.30804608 633.86648863 462.65190125 641.50793457 C461.76502625 642.08543457 460.87815125 642.66293457 459.96440125 643.25793457 C454.66602744 646.65432804 449.45556959 648.79829819 443.44096375 650.64074707 C441.17815773 651.34430861 439.07532997 652.14170071 436.90190125 653.07043457 C426.01085385 657.25753893 412.70114252 658.63014311 401.13171196 658.63656902 C400.41587023 658.63832206 399.70002851 658.6400751 398.96249461 658.64188126 C396.57540495 658.64651524 394.18837691 658.6440825 391.80128479 658.64164734 C390.06781659 658.64351663 388.33434881 658.6458178 386.6008817 658.64851266 C381.84591769 658.65462259 377.09097129 658.65449801 372.33600426 658.65331829 C367.20426539 658.65311407 362.07253214 658.65863505 356.9407959 658.66337585 C346.88935882 658.67167882 336.83792761 658.67443055 326.78648739 658.67498823 C318.61412332 658.67546361 310.44176119 658.67751946 302.26939774 658.68068886 C279.09048177 658.68949488 255.91157042 658.69410838 232.73265277 658.69335838 C231.48332898 658.69331843 230.2340052 658.69327847 228.94682312 658.6932373 C227.69597066 658.69319642 226.4451182 658.69315554 225.15636112 658.69311342 C204.89052594 658.69270709 184.62470935 658.70227362 164.35887955 658.71637567 C143.54146891 658.73074702 122.72406734 658.73764542 101.90665162 658.7367819 C90.22278758 658.73645016 78.53894303 658.73918683 66.85508347 658.74995995 C56.90582461 658.75907497 46.95659407 658.761232 37.00733285 658.75445052 C31.93425551 658.75119024 26.86123247 658.75111085 21.78816032 658.75980377 C17.13698418 658.76769153 12.48590519 658.76621417 7.83473136 658.75751964 C6.15909275 658.75598964 4.48344681 658.75778179 2.80781685 658.76337972 C-15.53368027 658.82055814 -33.71291644 656.82552573 -50.34809875 648.50793457 C-51.39223938 648.02711426 -52.43638 647.54629395 -53.51216125 647.05090332 C-66.66325015 640.82527698 -77.84171993 632.57193955 -88.34809875 622.50793457 C-89.02098938 621.88660645 -89.69388 621.26527832 -90.38716125 620.62512207 C-107.51482983 604.31630617 -118.55069323 583.1843061 -123.8742218 560.31359863 C-124.30355663 558.42575119 -124.30355663 558.42575119 -125.34809875 556.50793457 C-126.95069446 547.44474153 -126.49088429 538.04177133 -126.48181152 528.87185669 C-126.48368157 527.07748981 -126.48598305 525.28312333 -126.48867685 523.48875749 C-126.49477708 518.57482908 -126.49466335 513.66091772 -126.49348247 508.74698639 C-126.49327802 503.44081359 -126.49880141 498.13464621 -126.50354004 492.82847595 C-126.51183701 482.43975878 -126.51459443 472.05104728 -126.51515242 461.66232707 C-126.51562795 453.21730104 -126.51768459 444.77227687 -126.52085304 436.32725143 C-126.5296564 412.37529507 -126.53427282 388.42334319 -126.53352257 364.4713852 C-126.53348261 363.18084883 -126.53344266 361.89031247 -126.53340149 360.56066895 C-126.53336061 359.26855426 -126.53331973 357.97643957 -126.53327761 356.6451699 C-126.53287105 335.69912573 -126.54244383 314.75309953 -126.55653986 293.80706055 C-126.57090492 272.29124864 -126.57780999 250.77544549 -126.57694608 229.25962865 C-126.57661419 217.18350107 -126.57935773 205.10739233 -126.59012413 193.03126907 C-126.59923075 182.75115766 -126.60140297 172.47107364 -126.59461471 162.19095995 C-126.59135056 156.94799476 -126.59128911 151.70508214 -126.59996796 146.46212196 C-126.60783824 141.658163 -126.60639608 136.85429822 -126.59768382 132.05034153 C-126.59615003 130.3169252 -126.59796043 128.58350182 -126.6035439 126.8500938 C-126.63148224 117.55759505 -126.29116654 108.64063647 -124.34809875 99.50793457 C-124.12509094 98.39418457 -123.90208313 97.28043457 -123.6723175 96.13293457 C-115.59922982 62.85002093 -92.36781668 34.14635515 -63.48628235 16.3614502 C-44.04326689 4.76545971 -22.42177016 -0.12825769 0 0 Z " fill="#31211E" transform="translate(427.3480987548828,287.4920654296875)"/>
<path d="M0 0 C7.91580255 7.0009108 15.68202313 17.285345 16.53613281 28.18041992 C16.58203363 30.55792191 16.61026471 32.93459232 16.625 35.3125 C16.6559375 36.53163086 16.6559375 36.53163086 16.6875 37.77539062 C16.75914209 49.03215377 11.98791707 61.12388071 4.22143555 69.36889648 C-2.82070489 76.06651862 -11.30749158 80.10685449 -20.125 83.9375 C-22.26214563 84.87758966 -24.39765345 85.82141428 -26.53125 86.76953125 C-27.46259766 87.17534424 -28.39394531 87.58115723 -29.35351562 87.99926758 C-31.74861026 89.03555951 -31.74861026 89.03555951 -33.625 91.125 C-33.5782551 93.16512199 -33.5782551 93.16512199 -32.625 95.125 C-31.0497523 96.45364053 -31.0497523 96.45364053 -28.99609375 97.4296875 C-28.22136719 97.84049561 -27.44664062 98.25130371 -26.6484375 98.67456055 C-25.79507812 99.11195557 -24.94171875 99.54935059 -24.0625 100 C-22.21587021 100.98010609 -20.37088375 101.96331317 -18.52734375 102.94921875 C-17.07110596 103.72531494 -17.07110596 103.72531494 -15.58544922 104.51708984 C-10.69986807 107.1705978 -5.91504964 109.99123688 -1.125 112.8125 C7.63413496 117.95362344 16.42649647 123.03283836 25.25 128.0625 C27.61472375 129.41121228 29.97928624 130.76020699 32.34375 132.109375 C32.92808807 132.44279907 33.51242615 132.77622314 34.11447144 133.11975098 C43.51948964 138.48846988 52.9042058 143.89223256 62.27197266 149.32568359 C64.34609562 150.52838118 66.42129818 151.72921879 68.49755859 152.92822266 C71.48165291 154.65351318 74.46026776 156.38790086 77.4375 158.125 C78.74823486 158.88043091 78.74823486 158.88043091 80.08544922 159.65112305 C89.7924612 165.34609208 98.67311159 171.01933476 102.375 182.125 C103.15145322 191.89721844 103.10410669 199.77138633 97.375 208.125 C96.694375 209.1975 96.01375 210.27 95.3125 211.375 C88.74279603 218.31384358 81.10322368 220.43618326 71.86009216 220.6940918 C66.44524539 220.72298564 61.03814661 220.62594239 55.625 220.5 C53.36722313 220.46985741 51.10940743 220.44248922 48.8515625 220.41796875 C43.35851799 220.35232898 37.86694295 220.25232346 32.375 220.125 C32.64417236 220.95104736 32.91334473 221.77709473 33.19067383 222.62817383 C35.32358282 229.33291219 37.09373415 235.84537877 38.0625 242.8125 C38.18278564 243.63282715 38.30307129 244.4531543 38.42700195 245.29833984 C38.7550687 247.57242349 39.06758196 249.8480498 39.375 252.125 C39.5090625 253.06214844 39.643125 253.99929688 39.78125 254.96484375 C45.54870593 301.82542319 27.49818785 351.19316253 -0.93603516 387.81347656 C-3.43313017 390.97443102 -6.01362549 394.05833575 -8.625 397.125 C-9.15480469 397.77726562 -9.68460938 398.42953125 -10.23046875 399.1015625 C-13.34000444 402.8863593 -16.71466356 406.09558008 -20.453125 409.2578125 C-21.93237464 410.52954151 -23.37977646 411.83905112 -24.796875 413.1796875 C-64.28140865 450.41174776 -119.31750216 463.2555261 -172.05078125 462.421875 C-184.48747739 462.05189387 -196.67797898 460.6422495 -208.625 457.125 C-210.22511493 456.85025849 -211.82949674 456.59900045 -213.4375 456.375 C-243.35248214 451.14193839 -273.11098854 434.03739236 -295.625 414.125 C-296.13337402 413.67688965 -296.64174805 413.2287793 -297.16552734 412.76708984 C-328.69409386 384.81422034 -348.07672822 350.28385072 -358.06298828 309.4074707 C-358.42022913 307.95662591 -358.79200248 306.509224 -359.18310547 305.06713867 C-367.77792302 273.06118303 -363.17893095 234.97392695 -352.625 204.125 C-352.38523437 203.4124707 -352.14546875 202.69994141 -351.8984375 201.96582031 C-340.58689713 168.82362855 -320.12967712 137.18757523 -292.625 115.125 C-291.62339844 114.29742187 -290.62179687 113.46984375 -289.58984375 112.6171875 C-273.12580766 99.18956124 -254.56006722 88.52604292 -234.625 81.125 C-233.99416504 80.89071289 -233.36333008 80.65642578 -232.71337891 80.41503906 C-218.08946233 75.10666434 -202.97312636 72.44468837 -187.625 70.125 C-186.86348633 70.00938721 -186.10197266 69.89377441 -185.31738281 69.7746582 C-178.12262149 68.82952667 -170.86941123 68.92486063 -163.625 68.9375 C-162.58539124 68.93890488 -162.58539124 68.93890488 -161.52478027 68.94033813 C-151.085989 68.97090583 -140.94182796 69.35946184 -130.625 71.125 C-129.15764404 71.35896484 -129.15764404 71.35896484 -127.66064453 71.59765625 C-108.55090264 74.66840781 -90.25760619 79.01825852 -72.625 87.125 C-72.625 92.735 -72.625 98.345 -72.625 104.125 C-75.1825 103.5475 -77.74 102.97 -80.375 102.375 C-83.78980466 101.61639843 -87.20701874 100.86915028 -90.625 100.125 C-91.43179199 99.94888184 -92.23858398 99.77276367 -93.06982422 99.59130859 C-111.87734378 95.53072486 -130.42353459 92.86490654 -149.6875 92.75 C-150.95891846 92.73614258 -152.23033691 92.72228516 -153.5402832 92.70800781 C-180.12051437 92.83970464 -202.12040094 104.37459179 -221.1875 122.375 C-245.69388825 148.04282845 -258.47317883 183.21301268 -264.046875 217.68359375 C-264.35213679 219.50072645 -264.67429215 221.31878964 -265.12850952 223.10452271 C-268.52782585 236.93810413 -268.03193874 252.10720176 -268 266.25 C-267.9987915 267.24812714 -267.99758301 268.24625427 -267.99633789 269.27462769 C-267.88126712 304.55399186 -263.24570352 339.03358145 -247.625 371.125 C-247.23022461 371.93678711 -246.83544922 372.74857422 -246.42871094 373.58496094 C-232.91677784 400.97858293 -213.86898468 422.97645182 -184.61108398 433.36206055 C-166.79971775 439.28190471 -145.36564215 438.34531532 -128.625 430.125 C-127.4596875 429.64933594 -126.294375 429.17367188 -125.09375 428.68359375 C-103.38175802 418.92786762 -89.04537023 399.1565497 -77.625 379.125 C-76.9753125 377.99578125 -76.325625 376.8665625 -75.65625 375.703125 C-58.68300967 344.07117712 -53.4368517 306.00043838 -53.43969727 270.61010742 C-53.43752231 267.5934411 -53.41934438 264.5771483 -53.40039062 261.56054688 C-53.35252798 245.36604924 -54.50720476 229.54644931 -57.5625 213.625 C-57.82571045 212.22652832 -57.82571045 212.22652832 -58.09423828 210.79980469 C-59.30941068 204.47203022 -60.66556962 198.26854156 -62.625 192.125 C-62.91431396 191.17608887 -62.91431396 191.17608887 -63.20947266 190.20800781 C-68.00578296 174.5259716 -74.14838241 159.60240711 -83.625 146.125 C-84.64013672 144.66513672 -84.64013672 144.66513672 -85.67578125 143.17578125 C-91.04726075 135.72440383 -97.01887245 129.46087687 -103.625 123.125 C-105.29512327 121.46179713 -106.96282365 119.79614492 -108.625 118.125 C-94.09063898 119.04781657 -80.27263126 123.27028122 -66.625 128.125 C-65.38621094 128.53105469 -64.14742187 128.93710937 -62.87109375 129.35546875 C-39.04069416 137.39390932 -17.48567914 152.66512151 0.375 170.125 C1.09816406 170.78628906 1.82132813 171.44757813 2.56640625 172.12890625 C11.24090621 180.24263046 18.51925569 190.82696691 24.375 201.125 C24.375 201.785 24.375 202.445 24.375 203.125 C31.34971435 203.0832228 38.32363771 203.01079064 45.29785156 202.91748047 C47.66822156 202.88933111 50.03868438 202.86808671 52.40917969 202.85400391 C55.82535106 202.83249149 59.24041355 202.78579606 62.65625 202.734375 C63.70864868 202.73314636 64.76104736 202.73191772 65.84533691 202.73065186 C71.94472626 202.61043236 77.47826786 202.09840517 82.375 198.125 C84.39614507 194.89689499 84.69965495 192.01850192 84.93359375 188.22265625 C83.59110226 183.18127212 78.58512384 180.42599043 74.31542969 177.94384766 C73.65446289 177.57050293 72.99349609 177.1971582 72.3125 176.8125 C71.59352539 176.39790527 70.87455078 175.98331055 70.13378906 175.55615234 C67.55217646 174.07084826 64.96353215 172.59821029 62.375 171.125 C60.1728768 169.86380542 57.97107318 168.60205272 55.76953125 167.33984375 C47.63271365 162.67815781 39.48520763 158.03526448 31.33642578 153.39453125 C21.9122093 148.02690304 12.50527057 142.63715996 3.16821289 137.11914062 C-3.3228321 133.28890383 -9.84662391 129.5161885 -16.375 125.75 C-17.47811523 125.11312256 -18.58123047 124.47624512 -19.71777344 123.82006836 C-25.08499615 120.72561993 -30.46002057 117.64656101 -35.85546875 114.6015625 C-36.8206543 114.0554834 -37.78583984 113.5094043 -38.78027344 112.94677734 C-40.58969785 111.92457004 -42.40143309 110.90643873 -44.21582031 109.89306641 C-45.01987305 109.43851074 -45.82392578 108.98395508 -46.65234375 108.515625 C-47.35093506 108.12407227 -48.04952637 107.73251953 -48.76928711 107.32910156 C-51.96963981 105.25251433 -53.40497178 103.78508466 -54.625 100.125 C-55.3193241 93.42973186 -55.51969609 87.54348761 -51.25854492 82.05126953 C-44.67346916 74.28617496 -36.60613638 70.42730326 -27.4375 66.4375 C-25.54287802 65.60402117 -23.65039731 64.76636085 -21.76139832 63.92021179 C-20.05703918 63.15800577 -18.34667793 62.4092622 -16.63598633 61.66137695 C-8.59477062 57.55829008 -4.8503422 51.3865609 -1.625 43.125 C0.06753143 33.22933291 -2.41177815 26.0393393 -7.75 17.875 C-14.20916434 11.69666889 -22.25981451 8.72696214 -31.12109375 8.84375 C-38.20574202 9.63952953 -44.78211195 12.94423604 -49.625 18.125 C-52.30343772 22.51196763 -54.44121851 27.02233924 -55.75 32 C-57.14260563 36.97359155 -57.14260563 36.97359155 -59.625 39.125 C-62.3375743 40.0331227 -64.77207111 40.37525692 -67.625 40.125 C-70.48493478 38.36035939 -72.12282849 37.12934303 -73.625 34.125 C-74.76137815 25.48107443 -71.91739303 18.05377044 -66.9375 11.0625 C-65.85784753 9.72976191 -64.75177419 8.41814353 -63.625 7.125 C-62.97660156 6.37089844 -62.32820313 5.61679687 -61.66015625 4.83984375 C-44.99382929 -13.21283229 -19.32817999 -14.70685575 0 0 Z " fill="#FCFBFB" transform="translate(778.625,382.875)"/>
<path d="M0 0 C7.91580255 7.0009108 15.68202313 17.285345 16.53613281 28.18041992 C16.58203363 30.55792191 16.61026471 32.93459232 16.625 35.3125 C16.645625 36.12525391 16.66625 36.93800781 16.6875 37.77539062 C16.75914209 49.03215377 11.98791707 61.12388071 4.22143555 69.36889648 C-2.82070489 76.06651862 -11.30749158 80.10685449 -20.125 83.9375 C-22.26214563 84.87758966 -24.39765345 85.82141428 -26.53125 86.76953125 C-27.46259766 87.17534424 -28.39394531 87.58115723 -29.35351562 87.99926758 C-31.74861026 89.03555951 -31.74861026 89.03555951 -33.625 91.125 C-33.5782551 93.16512199 -33.5782551 93.16512199 -32.625 95.125 C-31.0497523 96.45364053 -31.0497523 96.45364053 -28.99609375 97.4296875 C-28.22136719 97.84049561 -27.44664062 98.25130371 -26.6484375 98.67456055 C-25.79507813 99.11195557 -24.94171875 99.54935059 -24.0625 100 C-22.21587021 100.98010609 -20.37088375 101.96331317 -18.52734375 102.94921875 C-17.07110596 103.72531494 -17.07110596 103.72531494 -15.58544922 104.51708984 C-10.69986807 107.1705978 -5.91504964 109.99123688 -1.125 112.8125 C7.63413496 117.95362344 16.42649647 123.03283836 25.25 128.0625 C27.61472375 129.41121228 29.97928624 130.76020699 32.34375 132.109375 C32.92808807 132.44279907 33.51242615 132.77622314 34.11447144 133.11975098 C43.51948964 138.48846988 52.9042058 143.89223256 62.27197266 149.32568359 C64.34609562 150.52838118 66.42129818 151.72921879 68.49755859 152.92822266 C71.48165291 154.65351318 74.46026776 156.38790086 77.4375 158.125 C78.31132324 158.62862061 79.18514648 159.13224121 80.08544922 159.65112305 C89.7924612 165.34609208 98.67311159 171.01933476 102.375 182.125 C103.15145322 191.89721844 103.10410669 199.77138633 97.375 208.125 C96.694375 209.1975 96.01375 210.27 95.3125 211.375 C88.74279603 218.31384358 81.10322368 220.43618326 71.86009216 220.6940918 C66.44524539 220.72298564 61.03814661 220.62594239 55.625 220.5 C53.36722313 220.46985741 51.10940743 220.44248922 48.8515625 220.41796875 C43.35851799 220.35232898 37.86694295 220.25232346 32.375 220.125 C31.20366942 217.66879149 30.03778278 215.21025083 28.875 212.75 C28.54113281 212.05132813 28.20726562 211.35265625 27.86328125 210.6328125 C25.375 205.3515625 25.375 205.3515625 25.375 203.125 C26.26916626 203.11953156 26.26916626 203.11953156 27.18139648 203.11395264 C33.4115229 203.07199343 39.64092182 203.00255428 45.87060547 202.91748047 C48.19247139 202.88933468 50.51443199 202.86808851 52.83642578 202.85400391 C56.18310799 202.83248645 59.52865949 202.78578876 62.875 202.734375 C63.9055249 202.73314636 64.9360498 202.73191772 65.99780273 202.73065186 C72.05003798 202.60892578 77.51234294 202.05106401 82.375 198.125 C84.39718817 194.89755687 84.69966651 192.01831432 84.93359375 188.22265625 C83.59110226 183.18127212 78.58512384 180.42599043 74.31542969 177.94384766 C73.65446289 177.57050293 72.99349609 177.1971582 72.3125 176.8125 C71.59352539 176.39790527 70.87455078 175.98331055 70.13378906 175.55615234 C67.55217646 174.07084826 64.96353215 172.59821029 62.375 171.125 C60.1728768 169.86380542 57.97107318 168.60205272 55.76953125 167.33984375 C47.63271365 162.67815781 39.48520763 158.03526448 31.33642578 153.39453125 C21.9122093 148.02690304 12.50527057 142.63715996 3.16821289 137.11914062 C-3.3228321 133.28890383 -9.84662391 129.5161885 -16.375 125.75 C-17.47811523 125.11312256 -18.58123047 124.47624512 -19.71777344 123.82006836 C-25.08499615 120.72561993 -30.46002057 117.64656101 -35.85546875 114.6015625 C-36.8206543 114.0554834 -37.78583984 113.5094043 -38.78027344 112.94677734 C-40.58969785 111.92457004 -42.40143309 110.90643873 -44.21582031 109.89306641 C-45.42189941 109.21123291 -45.42189941 109.21123291 -46.65234375 108.515625 C-47.70023071 107.9282959 -47.70023071 107.9282959 -48.76928711 107.32910156 C-51.96963981 105.25251433 -53.40497178 103.78508466 -54.625 100.125 C-55.3193241 93.42973186 -55.51969609 87.54348761 -51.25854492 82.05126953 C-44.67346916 74.28617496 -36.60613638 70.42730326 -27.4375 66.4375 C-25.54287802 65.60402117 -23.65039731 64.76636085 -21.76139832 63.92021179 C-20.05703918 63.15800577 -18.34667793 62.4092622 -16.63598633 61.66137695 C-8.59477062 57.55829008 -4.8503422 51.3865609 -1.625 43.125 C0.06753143 33.22933291 -2.41177815 26.0393393 -7.75 17.875 C-14.20916434 11.69666889 -22.25981451 8.72696214 -31.12109375 8.84375 C-38.20574202 9.63952953 -44.78211195 12.94423604 -49.625 18.125 C-52.30343772 22.51196763 -54.44121851 27.02233924 -55.75 32 C-57.14260563 36.97359155 -57.14260563 36.97359155 -59.625 39.125 C-62.3375743 40.0331227 -64.77207111 40.37525692 -67.625 40.125 C-70.48493478 38.36035939 -72.12282849 37.12934303 -73.625 34.125 C-74.76137815 25.48107443 -71.91739303 18.05377044 -66.9375 11.0625 C-65.85784753 9.72976191 -64.75177419 8.41814353 -63.625 7.125 C-62.97660156 6.37089844 -62.32820312 5.61679687 -61.66015625 4.83984375 C-44.99382929 -13.21283229 -19.32817999 -14.70685575 0 0 Z " fill="#BD9186" transform="translate(778.625,382.875)"/>
<path d="M0 0 C1.79244141 0.01740234 1.79244141 0.01740234 3.62109375 0.03515625 C5.41740234 0.04869141 5.41740234 0.04869141 7.25 0.0625 C8.17683594 0.07410156 9.10367188 0.08570313 10.05859375 0.09765625 C9.39859375 1.08765625 8.73859375 2.07765625 8.05859375 3.09765625 C5.06298214 3.39175447 2.27416599 3.48854461 -0.7237854 3.4584198 C-1.64429353 3.46098307 -2.56480166 3.46354635 -3.51320398 3.4661873 C-6.61656206 3.47115279 -9.71944019 3.45458676 -12.82275391 3.43823242 C-15.03976937 3.43738675 -17.25678568 3.43786012 -19.47380066 3.43955994 C-25.5086867 3.44042364 -31.54339527 3.42273725 -37.57823992 3.40183806 C-43.87900432 3.38313364 -50.17977242 3.38132576 -56.4805603 3.37776184 C-67.06128976 3.36948525 -77.64196077 3.35072363 -88.22265625 3.32397461 C-99.12206698 3.29644845 -110.02145998 3.27520782 -120.92089844 3.26245117 C-121.592447 3.261663 -122.26399555 3.26087483 -122.95589407 3.26006278 C-126.32476872 3.25614774 -129.6936435 3.2523566 -133.06251836 3.24862707 C-161.0221932 3.21723641 -188.98179514 3.16444025 -216.94140625 3.09765625 C-216.94140625 2.76765625 -216.94140625 2.43765625 -216.94140625 2.09765625 C-215.29617147 2.09130834 -215.29617147 2.09130834 -213.61769962 2.08483219 C-186.97109593 1.98179303 -160.32452013 1.8730648 -133.67796421 1.75831699 C-120.79207341 1.70295932 -107.90617984 1.64947321 -95.02026367 1.6003418 C-83.79332972 1.55753106 -72.56641637 1.51126104 -61.3395142 1.4607777 C-55.39097196 1.43415163 -49.44243387 1.40929802 -43.49386787 1.38858223 C-37.90189429 1.36905373 -32.30996001 1.34492153 -26.71802139 1.31716537 C-24.65921298 1.3077748 -22.60039593 1.3001068 -20.54157448 1.29423714 C-17.74366089 1.28600989 -14.94584357 1.27174306 -12.14796448 1.25587463 C-11.32210533 1.25489653 -10.49624619 1.25391842 -9.64536101 1.25291067 C-5.97618823 1.22591079 -3.39248369 0.11263226 0 0 Z " fill="#392925" transform="translate(831.94140625,287.90234375)"/>
<path d="M0 0 C2.94480385 2.75995686 5.05592389 5.48037534 7.125 8.9375 C10.68612677 14.67701667 14.69759983 19.9465084 18.86328125 25.25 C21 28 21 28 23 31 C20 31 20 31 17.875 29.1875 C16 27 16 27 15 24 C14.484375 23.484375 13.96875 22.96875 13.4375 22.4375 C12.963125 21.963125 12.48875 21.48875 12 21 C12 20.34 12 19.68 12 19 C11.34 19 10.68 19 10 19 C8.6328125 17.0234375 8.6328125 17.0234375 7.125 14.375 C5.382517 11.35555028 3.64108934 8.40662604 1.625 5.5625 C0 3 0 3 0 0 Z " fill="#3A2C29" transform="translate(441,747)"/>
<path d="M0 0 C1.01725914 0.00212242 1.01725914 0.00212242 2.05506897 0.00428772 C4.19431203 0.0098288 6.3334455 0.02236972 8.47265625 0.03515625 C9.93424327 0.04017889 11.39583194 0.04474045 12.85742188 0.04882812 C16.41670151 0.0597788 19.97591816 0.0770018 23.53515625 0.09765625 C23.53515625 0.75765625 23.53515625 1.41765625 23.53515625 2.09765625 C10.00515625 2.42765625 -3.52484375 2.75765625 -17.46484375 3.09765625 C-12.17967121 -0.42579211 -6.19531164 -0.02570669 0 0 Z " fill="#342523" transform="translate(621.46484375,474.90234375)"/>
<path d="M0 0 C0.66 0.33 1.32 0.66 2 1 C0.68 1.33 -0.64 1.66 -2 2 C-2 2.99 -2 3.98 -2 5 C-3.88923398 6.01241247 -5.78669944 7.00947425 -7.6875 8 C-9.27111328 8.8353125 -9.27111328 8.8353125 -10.88671875 9.6875 C-13.92226262 10.9672274 -15.76026826 11.28851043 -19 11 C-15.79597405 7.53612143 -12.11911628 5.82047313 -7.9375 3.75 C-6.83825195 3.18539063 -6.83825195 3.18539063 -5.71679688 2.609375 C-3.8428798 1.67327685 -1.92372213 0.82893794 0 0 Z " fill="#4D403D" transform="translate(380,296)"/>
<path d="M0 0 C2 1 2 1 3 3 C1.27136297 4.10499565 -0.45793388 5.20895914 -2.1875 6.3125 C-3.15042969 6.92738281 -4.11335937 7.54226563 -5.10546875 8.17578125 C-6.53826172 9.07876953 -6.53826172 9.07876953 -8 10 C-9.35544922 10.88751953 -9.35544922 10.88751953 -10.73828125 11.79296875 C-11.48464844 12.19128906 -12.23101563 12.58960938 -13 13 C-13.66 12.67 -14.32 12.34 -15 12 C-13.06401165 10.37316948 -11.12629031 8.74848531 -9.1875 7.125 C-8.64029297 6.66480469 -8.09308594 6.20460938 -7.52929688 5.73046875 C-5.08054339 3.68242038 -2.65921675 1.77281117 0 0 Z " fill="#3E302E" transform="translate(576,489)"/>
<path d="M0 0 C0.66 0.66 1.32 1.32 2 2 C0.76265016 3.03613033 -0.49044637 4.05347802 -1.75 5.0625 C-2.79414062 5.91521484 -2.79414062 5.91521484 -3.859375 6.78515625 C-6 8 -6 8 -10 7 C-6.7 4.69 -3.4 2.38 0 0 Z " fill="#3C2E2A" transform="translate(743,804)"/>
<path d="M0 0 C-6.4520637 3.37703759 -12.87359127 3.12675431 -20 3 C-14.09717539 -0.93521641 -6.86423947 -0.12430212 0 0 Z " fill="#665C59" transform="translate(624,475)"/>
<path d="M0 0 C3.87132028 0.57352893 6.08172796 2.48704352 9 5 C8.01 5.33 7.02 5.66 6 6 C2.8125 4.1875 2.8125 4.1875 0 2 C0 1.34 0 0.68 0 0 Z " fill="#3F2F2D" transform="translate(497,809)"/>
<path d="M0 0 C0.99 0.33 1.98 0.66 3 1 C0.75 3.5625 0.75 3.5625 -2 6 C-4.3125 5.8125 -4.3125 5.8125 -6 5 C-1.60546875 0.99609375 -1.60546875 0.99609375 0 0 Z " fill="#3E312E" transform="translate(352,312)"/>
<path d="M0 0 C3.125 0.375 3.125 0.375 6 1 C6 1.33 6 1.66 6 2 C7.65 2.33 9.3 2.66 11 3 C11 3.33 11 3.66 11 4 C6.07872966 4.16682272 2.49656104 4.24828052 -2 2 C-1.34 1.34 -0.68 0.68 0 0 Z " fill="#4C3F3C" transform="translate(597,815)"/>
<path d="M0 0 C2.74277578 3.19990508 4.6302836 6.00499382 6 10 C4.68 9.67 3.36 9.34 2 9 C2 7.68 2 6.36 2 5 C1.34 5 0.68 5 0 5 C0 3.35 0 1.7 0 0 Z " fill="#3C2F2C" transform="translate(697,532)"/>
<path d="M0 0 C-2.85306797 2.32472205 -5.54074837 3.7508258 -9 5 C-8.625 3.0625 -8.625 3.0625 -8 1 C-5.29120665 -0.35439668 -2.99066732 -0.06501451 0 0 Z " fill="#473935" transform="translate(887,930)"/>
<path d="M0 0 C3.81684226 1.55500981 6.19195732 4.03595495 9 7 C8.67 7.66 8.34 8.32 8 9 C6.66079162 7.88200014 5.32877444 6.75538103 4 5.625 C2.88625 4.68527344 2.88625 4.68527344 1.75 3.7265625 C1.1725 3.15679688 0.595 2.58703125 0 2 C0 1.34 0 0.68 0 0 Z " fill="#3A2E2B" transform="translate(767,541)"/>
<path d="M0 0 C2 1 2 1 2 1 Z M0 1 C-0.33 1.66 -0.66 2.32 -1 3 C-3.64860427 3.59355614 -6.29197322 3.74209269 -9 4 C-6.38997624 0.51996832 -4.1689578 0.72206948 0 1 Z " fill="#41322E" transform="translate(370,303)"/>
<path d="M0 0 C-3.44450737 2.29633824 -5.93812283 2.54016485 -10 3 C-4.375 -1.3125 -4.375 -1.3125 0 0 Z " fill="#473A37" transform="translate(593,483)"/>
<path d="M0 0 C0.6875 1.8125 0.6875 1.8125 1 4 C-0.4375 5.75 -0.4375 5.75 -2 7 C-2.99 6.67 -3.98 6.34 -5 6 C-3.35 4.02 -1.7 2.04 0 0 Z " fill="#432F2A" transform="translate(731,398)"/>
<path d="M0 0 C0.33 0 0.66 0 1 0 C1.92470553 4.71599818 2.22923777 7.67265609 0 12 C-0.33 12 -0.66 12 -1 12 C-1.14285714 3.42857143 -1.14285714 3.42857143 0 0 Z " fill="#4F4240" transform="translate(513,604)"/>
<path d="M0 0 C0.6875 1.6875 0.6875 1.6875 1 4 C-0.3125 6.75 -0.3125 6.75 -2 9 C-2.66 9 -3.32 9 -4 9 C-2.80100302 5.9168649 -1.52299523 2.93720508 0 0 Z " fill="#443735" transform="translate(537,532)"/>
<path d="M0 0 C2 1 2 1 3 3 C0.35261084 4.4606285 -0.89448334 5 -4 5 C-3 2 -3 2 0 0 Z " fill="#463835" transform="translate(576,489)"/>
<path d="M0 0 C0.33 1.32 0.66 2.64 1 4 C0.34 4 -0.32 4 -1 4 C-1 5.65 -1 7.3 -1 9 C-1.99 9 -2.98 9 -4 9 C-2.94124926 5.59687262 -1.99097846 2.98646769 0 0 Z " fill="#493C3A" transform="translate(319,348)"/>
<path d="M0 0 C1.98 1.65 3.96 3.3 6 5 C5.34 5.66 4.68 6.32 4 7 C2.35 5.02 0.7 3.04 -1 1 C-0.67 0.67 -0.34 0.34 0 0 Z " fill="#372724" transform="translate(467,782)"/>
<path d="M0 0 C0.66 0 1.32 0 2 0 C2 2.31 2 4.62 2 7 C1.01 6.67 0.02 6.34 -1 6 C-0.67 4.02 -0.34 2.04 0 0 Z " fill="#3A2B27" transform="translate(721,601)"/>
<path d="M0 0 C6.75 0.75 6.75 0.75 9 3 C3.46153846 3.36923077 3.46153846 3.36923077 1.125 1.5 C0.75375 1.005 0.3825 0.51 0 0 Z " fill="#3F302C" transform="translate(884,304)"/>
</svg>
